<svg id="Layer_1" xmlns="http://www.w3.org/2000/svg" viewBox="0 0 120 40"><path d="M116.61,29.16h.46c.31,0,.4-.11.4-.33,0-.19-.14-.3-.34-.3h-.52v.63ZM116.61,30.24h-.28v-1.95h.74c.46,0,.68.18.68.55s-.23.5-.51.54l.56.86h-.31l-.53-.85h-.36v.85ZM116.97,30.7c.78,0,1.37-.61,1.37-1.42s-.6-1.42-1.37-1.42-1.38.62-1.38,1.42.59,1.42,1.38,1.42M116.97,27.61c.92,0,1.68.72,1.68,1.67s-.77,1.68-1.68,1.68-1.69-.72-1.69-1.68.77-1.67,1.69-1.67"/><path d="M60.49,11.21c-.08.98-.1,2.12-.1,3.34v2.3c.44.02.88.04,1.52.04s1.08-.02,1.52-.04v-2.3c0-1.22-.02-2.36-.1-3.34h3.78c-.2,2.06-.2,3.74-.2,7.14s0,5.08.2,7.14h-3.78c.08-.98.1-2.12.1-3.34v-2.92c-.44-.02-.88-.04-1.52-.04s-1.08.02-1.52.04v2.92c0,1.22.02,2.36.1,3.34h-3.78c.2-2.06.2-3.74.2-7.14s0-5.08-.2-7.14h3.78Z"/><path d="M73.2,20.29c-1.26.32-2.04,1.1-2.04,2.1,0,.7.44,1.24,1.08,1.24.42,0,.84-.26.96-.44v-2.9ZM68.85,15.33c.28-.04,1.36-.16,2.1-.16,4.14,0,5.4,1.62,5.4,4.3v2.5c0,.96,0,2.04.52,3.52h-3.18c-.24-.32-.32-.54-.34-.62-.54.4-1.28.78-2.24.78-1.94,0-3.2-1.34-3.2-3.02,0-1.84,1.46-3.08,3.36-3.7l1.66-.54c-.02-.7-.48-1.3-1.42-1.3-.64,0-1.64.3-2.66,1.04v-2.8Z"/><path d="M81.33,22.69c0,.58.22,1.04.86,1.04.82,0,1.4-.84,1.4-3.22,0-1.7-.44-3.16-1.44-3.16-.54,0-.82.34-.82.82v4.52ZM81.33,11.21v4.52c.5-.3,1.22-.56,1.94-.56,1.9,0,3.68,1.4,3.68,5.04,0,2.82-1.54,5.52-4.38,5.52-.76,0-1.64-.26-2.58-1l-1.12.96-.96-.58c.18-1.28.18-2.64.18-4.08v-5.74c0-.74,0-1.56-.2-4.08h3.44Z"/><path d="M91.47,15.41c-.04,1.04-.04,2.56-.04,4.72,0,2.72,0,4.08.18,5.36h-3.6c.18-1.28.18-2.64.18-4.08v-1.92c0-1.44,0-2.8-.18-4.08h3.46ZM89.81,11.06c1,0,1.8.8,1.8,1.8s-.8,1.8-1.8,1.8-1.8-.8-1.8-1.8.8-1.8,1.8-1.8"/><path d="M96.99,12.35c-.04.62-.06,1.8-.06,3.06h1.5v1.92h-1.5v5.04c0,.82.3,1.28,1.1,1.28.12,0,.24,0,.42-.02v1.8c-.66.22-1.34.3-2.02.3-.9,0-1.62-.32-2.16-.96-.42-.5-.58-1.34-.58-2.36v-5.08h-1.16v-1.92h1.16c0-1.26-.02-2.44-.06-3.06h3.36Z"/><path d="M104.74,20.29c-1.26.32-2.04,1.1-2.04,2.1,0,.7.44,1.24,1.08,1.24.42,0,.84-.26.96-.44v-2.9ZM100.4,15.33c.28-.04,1.36-.16,2.1-.16,4.14,0,5.4,1.62,5.4,4.3v2.5c0,.96,0,2.04.52,3.52h-3.18c-.24-.32-.32-.54-.34-.62-.54.4-1.28.78-2.24.78-1.94,0-3.2-1.34-3.2-3.02,0-1.84,1.46-3.08,3.36-3.7l1.66-.54c-.02-.7-.48-1.3-1.42-1.3-.64,0-1.64.3-2.66,1.04v-2.8Z"/><path d="M113.32,12.35c-.04.62-.06,1.8-.06,3.06h1.5v1.92h-1.5v5.04c0,.82.3,1.28,1.1,1.28.12,0,.24,0,.42-.02v1.8c-.66.22-1.34.3-2.02.3-.9,0-1.62-.32-2.16-.96-.42-.5-.58-1.34-.58-2.36v-5.08h-1.16v-1.92h1.16c0-1.26-.02-2.44-.06-3.06h3.36Z"/><path d="M59.97,28.97s-.18-.11-.42-.11c-.46,0-.67.35-.67.72,0,.22.06.43.11.54h.81v1.04h-.82v2.21c0,.78,0,1.52.1,2.21h-1.95c.1-.69.1-1.43.1-2.21v-2.21h-.6v-1.04h.6v-.42c0-.64.11-1.07.62-1.5.43-.35.97-.47,1.45-.47.26,0,.54.04.68.1v1.14Z"/><path d="M61.82,32.85c0,1.31.28,1.78.61,1.78s.61-.47.61-1.78-.28-1.78-.61-1.78-.61.47-.61,1.78M64.97,32.85c0,1.84-1.21,2.86-2.54,2.86s-2.54-1.02-2.54-2.86,1.21-2.86,2.54-2.86,2.54,1.02,2.54,2.86"/><path d="M67.25,30.12c.06.19.14.55.15.73.38-.51.83-.86,1.38-.86.12,0,.18.01.24.03v1.44c-.12-.03-.27-.04-.33-.04-.82,0-1.18.76-1.18,1.95,0,.78,0,1.52.1,2.21h-2.02c.1-.69.1-1.43.1-2.21v-1.04c0-.78,0-1.52-.18-2.21h1.74Z"/><path d="M74.8,27.84c-.04.53-.05,1.15-.05,1.81v1.25c.24.01.48.02.82.02s.59-.01.82-.02v-1.25c0-.66,0-1.28-.05-1.81h2.05c-.11,1.12-.11,2.03-.11,3.87s0,2.75.11,3.87h-2.05c.04-.53.05-1.15.05-1.81v-1.58c-.24-.01-.48-.02-.82-.02s-.59.01-.82.02v1.58c0,.66.01,1.28.05,1.81h-2.05c.11-1.12.11-2.03.11-3.87s0-2.75-.11-3.87h2.05Z"/><path d="M82.34,35.58c-.08-.16-.13-.35-.16-.49-.4.39-.81.62-1.38.62-.92,0-1.53-.67-1.53-1.71v-1.67c0-.78,0-1.52-.1-2.21h1.85v3.63c0,.43.17.68.49.68.27,0,.55-.2.55-.57v-1.53c0-.78,0-1.52-.1-2.21h1.95c-.1.69-.1,1.43-.1,2.21v1.04c0,.78,0,1.52.1,2.21h-1.58Z"/><path d="M86.46,30.12c.08.16.13.35.16.49.4-.37.89-.62,1.43-.62.59,0,.95.34,1.21.69.39-.35.82-.69,1.53-.69,1.06,0,1.46.75,1.46,1.82v1.56c0,.78,0,1.52.1,2.21h-1.95c.1-.69.1-1.43.1-2.21v-1.51c0-.38-.11-.66-.44-.66-.37,0-.58.28-.58.66v1.51c0,.78,0,1.52.1,2.21h-1.95c.1-.69.1-1.43.1-2.21v-1.53c0-.36-.11-.64-.44-.64-.3,0-.57.25-.57.57v1.59c0,.78,0,1.52.1,2.21h-1.95c.1-.69.1-1.43.1-2.21v-1.04c0-.78,0-1.52-.1-2.21h1.6Z"/><path d="M95.76,32.76c-.68.17-1.11.6-1.11,1.14,0,.38.24.67.59.67.23,0,.46-.14.52-.24v-1.57ZM93.41,30.07c.15-.02.74-.09,1.14-.09,2.24,0,2.93.88,2.93,2.33v1.35c0,.52,0,1.11.28,1.91h-1.72c-.13-.17-.17-.29-.18-.34-.29.22-.69.42-1.21.42-1.05,0-1.74-.73-1.74-1.64,0-1,.79-1.67,1.82-2.01l.9-.29c-.01-.38-.26-.71-.77-.71-.35,0-.89.16-1.44.56v-1.52Z"/><path d="M99.84,30.12c.08.16.13.35.16.49.4-.39.81-.62,1.38-.62.92,0,1.53.67,1.53,1.71v1.67c0,.78,0,1.52.1,2.21h-1.95c.1-.69.1-1.43.1-2.21v-1.5c0-.34-.14-.61-.47-.61-.27,0-.57.19-.57.52v1.58c0,.78,0,1.52.1,2.21h-1.95c.1-.69.1-1.43.1-2.21v-1.04c0-.78,0-1.52-.1-2.21h1.58Z"/><path d="M105.52,30.12c-.02.56-.02,1.39-.02,2.56,0,1.47,0,2.21.1,2.9h-1.95c.1-.69.1-1.43.1-2.21v-1.04c0-.78,0-1.52-.1-2.21h1.87ZM104.62,27.77c.54,0,.98.43.98.98s-.43.98-.98.98-.98-.43-.98-.98.43-.98.98-.98"/><path d="M108.61,28.46c-.02.34-.03.98-.03,1.66h.81v1.04h-.81v2.73c0,.44.16.69.59.69.07,0,.13,0,.23-.01v.98c-.36.12-.73.16-1.1.16-.49,0-.88-.17-1.17-.52-.23-.27-.31-.73-.31-1.28v-2.75h-.63v-1.04h.63c0-.68-.01-1.32-.03-1.66h1.82Z"/><path d="M111.78,30.12c.14.84.55,2.38.77,3.09h.02c.3-1.11.53-2.35.63-3.09h1.55c-.36,1.48-1.17,4.5-1.86,5.92-.36.73-.9,1.6-2.39,1.6-.15,0-.38-.01-.52-.05v-1.39c.1.05.34.16.61.16.56,0,.94-.47.94-.87,0-.21-.04-.34-.48-1.48-.59-1.54-1.03-3.17-1.15-3.89h1.87Z"/><path d="M51.93,32.84l2.2-4.75c.07-.12-.02-.28-.16-.28h-7.05c-.17,0-.25.22-.11.33l1.81,1.55c.14.11.06.33-.11.33H8.31c-.17,0-.25-.22-.11-.33l1.8-1.55c.14-.11.06-.33-.11-.33H2.84c-.14,0-.22.14-.17.26l2.22,4.77c.03.06.02.14-.02.19l-3.49,4.37c-.09.12,0,.29.15.29h6.06c.1,0,.18.08.18.18v1.93c0,.1.08.18.18.18h40.9c.1,0,.18-.08.18-.18v-1.93c0-.1.08-.18.18-.18h6.06c.16,0,.24-.18.14-.3l-3.47-4.35c-.05-.06-.06-.14-.02-.21" style="fill:#cb9731;"/><path d="M23.33,17.67c1.09-.08,1.92-1.03,1.84-2.12-.08-1.09-1.03-1.92-2.13-1.84-1.09.08-1.92,1.03-1.84,2.12.08,1.09,1.03,1.92,2.12,1.84"/><path d="M18.72,27.28c-.25-1.85-.37-2.99-2.59-4.13-.92-.48-3.25-1.48-3.75-1.55-.12.73-.02,4.89.01,6.23h6.39c-.02-.19-.04-.37-.07-.54"/><path d="M48.59,18.23c-.83.22-3.71,1.02-6.26.83-1.84-.13-3.63-1.66-4.75-2.71,1.11-1.28,2.54-2.65,2.87-3.04.47-.55.55-1.42.16-1.82-.39-.39-1.11-.16-1.82.32-.71.47-3.4,3.18-5.96,3.18s-5.34-2.71-6.05-3.18c-.71-.47-1.74-.39-2.13,0-.39.39,0,.95.47,1.5.34.39,1.82,1.82,2.94,3.12-1.12,1.04-2.87,2.5-4.66,2.63-2.56.19-5.44-.61-6.26-.83-1.05-.27-2.24-.14-2.47.72-.15.54.31,1.13.92,1.53.61.4,3.78,1.01,4.67,2.38.36.56.6,2.66.81,4.96h4.9c.47-2.79.91-5.46,1.22-6.12.38-.82,1.33-2.03,2.18-3.06.36,1.68.73,5.59,1.11,9.18h4.59c.39-3.71.79-7.75,1.16-9.34.88,1.06,1.91,2.36,2.31,3.21.31.66.75,3.34,1.22,6.12h4.9c.21-2.31.45-4.4.81-4.96.89-1.36,4.06-1.98,4.67-2.38.61-.4,1.07-.99.92-1.53-.23-.86-1.42-.99-2.47-.72"/><path d="M51.45,11.76c-.4-.63-22.3-10.9-23.64-11.4-1.94-.73-2.99-.26-4.76.63-1.54.77-14.72,8.69-15.67,9.57.95.64,5.29,2.93,5.86,3.23,1.71.88,3.34.98,5.18,0,1.26-.67,12.67-7.69,14.56-7.51,1.9.17,14.58,6.96,15.88,7.25,1.54.35,3.57-.22,2.6-1.75"/><path d="M42.39,17.67c1.09.08,2.05-.74,2.13-1.84.08-1.09-.74-2.04-1.84-2.12-1.09-.08-2.05.74-2.12,1.84-.08,1.09.74,2.05,1.84,2.12"/><path d="M34.85,11.62c0-1.1-.89-1.99-1.99-1.99s-1.99.89-1.99,1.99.89,1.99,1.99,1.99,1.99-.89,1.99-1.99"/><path d="M11.07,36.14h1.2c.08.42.44.63.88.63.5,0,.81-.35.81-.85s-.33-.82-.82-.82c-.32,0-.58.14-.71.31h-1.15l.51-2.76h3.09v.98h-2.21l-.17.89h.01c.18-.17.52-.3.97-.3.95,0,1.72.66,1.72,1.71s-.82,1.82-2.02,1.82-1.99-.55-2.11-1.61"/><path d="M18.83,35.14c0-.97-.27-1.65-.94-1.65s-.95.68-.95,1.65.28,1.65.95,1.65.94-.66.94-1.65M15.69,35.14c0-1.59.9-2.61,2.21-2.61s2.21,1.02,2.21,2.61-.89,2.61-2.21,2.61-2.2-1.02-2.2-2.61"/><path d="M23.45,35.71l-1.76-3.28h1.4l.67,1.35c.17.36.34.79.34.79h.01s.18-.44.36-.79l.66-1.35h1.36l-1.76,3.28v1.92h-1.29v-1.92Z"/><polygon points="27.01 32.42 30.96 32.42 30.96 33.49 28.3 33.49 28.3 34.42 30.58 34.42 30.58 35.42 28.3 35.42 28.3 36.54 31 36.54 31 37.63 27.01 37.63 27.01 32.42"/><path d="M34.52,35.76l-.39-1.26c-.09-.27-.2-.73-.2-.73h-.01s-.12.47-.21.73l-.4,1.26h1.22ZM33.27,32.42h1.32l1.88,5.2h-1.35l-.31-.94h-1.82l-.3.94h-1.3l1.87-5.2Z"/><path d="M39.22,34.72c.51,0,.77-.24.77-.63s-.25-.65-.74-.65h-1v1.28h.97ZM36.96,32.42h2.49c1.03,0,1.82.53,1.82,1.5,0,.6-.3,1.05-.9,1.26v.02c.45.15.68.44.76.95.11.68.04,1.34.22,1.4v.07h-1.25c-.14-.08-.12-.69-.2-1.21-.07-.48-.31-.74-.87-.74h-.78v1.95h-1.29v-5.2Z"/><path d="M41.76,35.99h1.3c.06.52.4.74,1.02.74.42,0,.84-.15.84-.55,0-.41-.42-.5-1.14-.68-.9-.21-1.86-.49-1.86-1.58s.9-1.6,2.07-1.6,2,.51,2.05,1.6h-1.26c-.05-.4-.36-.63-.84-.63-.45,0-.75.2-.75.49,0,.36.4.45,1.18.63.97.23,1.84.52,1.84,1.64s-.93,1.7-2.13,1.7c-1.38,0-2.29-.61-2.32-1.76"/></svg>