<?xml version='1.0' encoding='UTF-8'?>
<svg xmlns="http://www.w3.org/2000/svg" width="780" height="155" viewBox="0 0 780 155" version="1.1"><!--One-line Habitat for Humanity lockup using vector house mark and outlined habitat.org Neue Haas Grotesk webfonts.--><path d="m36.233 123.4a134.85 134.85 0 0 1 19.601 8.1057c11.643 5.9688 12.232 11.937 13.559 21.664 1.3264 9.7268 2.6528 29.475 2.8738 36.844a265.79 265.79 0 0 1-28.517-22.106c-3.537-3.0949-7.3688-5.2319-7.3688-10.022-0.0737-1.6211-0.88426-29.696-0.14738-34.486zm204.63-51.508c5.0108 8.032-5.5266 10.98-13.632 9.1373-6.7793-1.5475-73.172-36.844-83.194-37.949-10.022-1.1053-69.635 35.812-76.194 39.35a27.191 27.191 0 0 1-27.191 0c-2.9475-1.4738-25.717-13.19-30.654-16.875 4.9371-4.6424 74.057-46.055 82.089-50.108 9.211-4.6424 14.738-7.3688 24.907-3.316 7.0741 2.6528 121.44 56.445 123.87 59.761zm-107.81-0.73689a10.39 10.39 0 1 1 10.39 10.39 10.39 10.39 0 0 1-10.39-10.39zm105.37 38.392c-1.179-4.5687-7.3688-5.2319-12.895-3.8318a104.71 104.71 0 0 1-32.791 4.3476 46.497 46.497 0 0 1-24.907-14.148c5.8214-6.7056 13.338-13.853 14.738-15.917a7.3688 7.3688 0 0 0 0.81057-9.5058c-2.0633-2.0633-5.7477-0.81057-9.5058 1.6948s-17.759 16.654-31.17 16.654c-13.411 0-28.002-14.222-31.686-16.654a9.8005 9.8005 0 0 0-11.201 0c-2.0633 2.0633 0 4.9371 2.5054 7.811s9.5058 9.5058 15.401 16.359a45.76 45.76 0 0 1-24.464 13.706 104.71 104.71 0 0 1-32.202-3.9792c-5.4529-1.4001-11.716-0.73688-12.895 3.8318-0.81057 2.8002 1.6211 5.8951 4.7897 7.9583s19.822 5.3792 24.464 12.453 5.3792 61.972 9.7268 64.182a16.875 16.875 0 0 0 11.716 0c4.2002-2.137 11.274-62.34 14.738-70.078a91.963 91.963 0 0 1 11.422-16.064c3.8318 17.98 8.032 84.963 12.085 86.363a22.106 22.106 0 0 0 11.569 0c3.9792-1.6948 8.3268-70.446 12.232-87.099a95.353 95.353 0 0 1 12.085 16.801c3.6107 7.3688 10.685 67.941 14.738 70.078a16.875 16.875 0 0 0 11.716 0c4.3476-1.8422 5.0845-57.035 9.7268-64.182s21.222-10.316 24.464-12.453 5.8951-5.5266 4.7897-8.3268zm-33.97-16.359a10.39 10.39 0 1 0-11.127 9.6532 10.39 10.39 0 0 0 11.127-9.6532zm-122.03 0a10.39 10.39 0 1 1 11.127 9.6532 10.39 10.39 0 0 1-11.127-9.6532z" fill="#111213" transform="translate(-2 0) scale(0.56)" /><g fill="#111213" aria-label="Habitat for Humanity"><path d="M49 0H226V298H477V0H654V715H477V444H226V715H49Z" transform="translate(170.000 77.000) scale(0.0580000 -0.0580000)" /><path d="M190 -13C267 -13 312 14 342 57H344C348 31 353 11 361 0H519V7C505 16 501 39 501 80V338C501 402 480 452 436 484C399 512 347 526 270 526C115 526 42 445 38 350H188C193 393 219 416 271 416C320 416 341 394 341 361C341 326 307 316 211 304C105 290 15 256 15 143C15 42 88 -13 190 -13ZM172 148C172 187 198 203 261 217C294 225 324 233 345 244V183C345 128 303 91 242 91C202 91 172 107 172 148Z" transform="translate(210.774 77.000) scale(0.0580000 -0.0580000)" /><path d="M352 -16C484 -16 570 86 570 256C570 410 484 527 351 527C281 527 237 498 205 454H202V715H39V0H195V65H197C229 12 284 -16 352 -16ZM197 256C197 340 232 403 304 403C370 403 405 345 405 257C405 168 370 113 306 113C239 113 197 171 197 256Z" transform="translate(242.152 77.000) scale(0.0580000 -0.0580000)" /><path d="M39 583H202V715H39ZM39 0H202V512H39Z" transform="translate(276.140 77.000) scale(0.0580000 -0.0580000)" /><path d="M242 -6C286 -6 317 -2 331 2V121C325 121 309 120 295 120C260 120 238 130 238 170V410H331V512H238V674H79V512H11V410H79V135C79 25 147 -6 242 -6Z" transform="translate(290.118 77.000) scale(0.0580000 -0.0580000)" /><path d="M190 -13C267 -13 312 14 342 57H344C348 31 353 11 361 0H519V7C505 16 501 39 501 80V338C501 402 480 452 436 484C399 512 347 526 270 526C115 526 42 445 38 350H188C193 393 219 416 271 416C320 416 341 394 341 361C341 326 307 316 211 304C105 290 15 256 15 143C15 42 88 -13 190 -13ZM172 148C172 187 198 203 261 217C294 225 324 233 345 244V183C345 128 303 91 242 91C202 91 172 107 172 148Z" transform="translate(310.476 77.000) scale(0.0580000 -0.0580000)" /><path d="M242 -6C286 -6 317 -2 331 2V121C325 121 309 120 295 120C260 120 238 130 238 170V410H331V512H238V674H79V512H11V410H79V135C79 25 147 -6 242 -6Z" transform="translate(341.854 77.000) scale(0.0580000 -0.0580000)" /><path d="M77 0H240V408H336V512H240V537C240 594 274 599 336 597V712C248 721 163 711 119 668C92 641 77 602 77 549V512H11V408H77Z" transform="translate(371.202 77.000) scale(0.0580000 -0.0580000)" /><path d="M290 -16C455 -16 563 101 563 255C563 409 455 526 290 526C126 526 16 409 16 255C16 101 126 -16 290 -16ZM181 255C181 348 218 411 289 411C360 411 398 348 398 255C398 162 360 100 289 100C218 100 181 162 181 255Z" transform="translate(391.444 77.000) scale(0.0580000 -0.0580000)" /><path d="M39 0H202V230C202 341 266 390 366 376H370V516C363 519 353 520 338 520C276 520 234 493 198 432H195V512H39Z" transform="translate(425.026 77.000) scale(0.0580000 -0.0580000)" /><path d="M49 0H226V298H477V0H654V715H477V444H226V715H49Z" transform="translate(456.230 77.000) scale(0.0580000 -0.0580000)" /><path d="M215 -15C286 -15 331 13 368 63H371V0H527V512H364V226C364 165 330 123 274 123C222 123 197 154 197 210V512H35V176C35 62 97 -15 215 -15Z" transform="translate(497.004 77.000) scale(0.0580000 -0.0580000)" /><path d="M39 0H202V287C202 348 232 391 283 391C332 391 355 359 355 304V0H518V287C518 348 547 391 599 391C648 391 671 359 671 304V0H834V333C834 448 776 527 660 527C594 527 539 499 499 437H497C471 492 420 527 353 527C279 527 230 492 198 439H195V512H39Z" transform="translate(529.832 77.000) scale(0.0580000 -0.0580000)" /><path d="M190 -13C267 -13 312 14 342 57H344C348 31 353 11 361 0H519V7C505 16 501 39 501 80V338C501 402 480 452 436 484C399 512 347 526 270 526C115 526 42 445 38 350H188C193 393 219 416 271 416C320 416 341 394 341 361C341 326 307 316 211 304C105 290 15 256 15 143C15 42 88 -13 190 -13ZM172 148C172 187 198 203 261 217C294 225 324 233 345 244V183C345 128 303 91 242 91C202 91 172 107 172 148Z" transform="translate(580.234 77.000) scale(0.0580000 -0.0580000)" /><path d="M39 0H202V283C202 346 238 391 292 391C345 391 372 354 372 300V0H535V333C535 447 469 527 357 527C286 527 237 497 199 442H196V512H39Z" transform="translate(611.612 77.000) scale(0.0580000 -0.0580000)" /><path d="M39 583H202V715H39ZM39 0H202V512H39Z" transform="translate(644.672 77.000) scale(0.0580000 -0.0580000)" /><path d="M242 -6C286 -6 317 -2 331 2V121C325 121 309 120 295 120C260 120 238 130 238 170V410H331V512H238V674H79V512H11V410H79V135C79 25 147 -6 242 -6Z" transform="translate(658.650 77.000) scale(0.0580000 -0.0580000)" /><path d="M56 -169H162C265 -169 314 -127 355 -7L532 512H369L302 294C286 244 272 176 272 176H270C270 176 254 244 238 294L169 512H-3L148 118C169 64 179 34 179 12C179 -23 160 -42 112 -42H56Z" transform="translate(679.008 77.000) scale(0.0580000 -0.0580000)" /></g><g fill="#111213" aria-label="registered trademark"><path d="M328 172Q268 172 215.5 194.0Q163 216 124.0 255.0Q85 294 62.5 347.5Q40 401 40 464Q40 527 62.5 581.0Q85 635 124.0 674.0Q163 713 215.5 735.0Q268 757 328 757Q388 757 440.5 735.0Q493 713 531.5 674.0Q570 635 592.5 581.0Q615 527 615 464Q615 401 592.5 347.5Q570 294 531.5 255.0Q493 216 440.5 194.0Q388 172 328 172ZM328 211Q380 211 425.0 230.0Q470 249 502.0 282.5Q534 316 552.5 362.5Q571 409 571 464Q571 519 552.5 566.0Q534 613 502.0 647.0Q470 681 425.0 700.0Q380 719 328 719Q276 719 231.5 700.0Q187 681 155.0 647.0Q123 613 104.5 566.0Q86 519 86 464Q86 409 104.5 362.5Q123 316 155.0 282.5Q187 249 231.5 230.0Q276 211 328 211ZM214 623H359Q402 623 430.5 599.0Q459 575 459 535Q459 508 444.0 488.0Q429 468 396 460V459Q423 452 434.0 437.5Q445 423 448 394Q452 362 453.5 340.0Q455 318 463 315V310H403Q396 313 394.0 334.5Q392 356 390 383Q387 436 331 436H275V310H214ZM275 483H345Q371 483 384.5 495.5Q398 508 398 528Q398 548 385.0 560.0Q372 572 346 572H275Z" transform="translate(715.690 35.000) scale(0.0160000 -0.0160000)" /></g><g fill="#111213" aria-label="of Central Lane"><path d="M298 -15Q237 -15 188.5 7.0Q140 29 106.0 67.5Q72 106 53.5 157.5Q35 209 35 268Q35 326 53.5 377.5Q72 429 106.0 467.5Q140 506 188.5 528.0Q237 550 298 550Q359 550 407.0 528.0Q455 506 489.0 467.5Q523 429 541.0 377.5Q559 326 559 268Q559 209 541.0 157.5Q523 106 489.0 67.5Q455 29 407.0 7.0Q359 -15 298 -15ZM297 61Q338 61 369.5 77.0Q401 93 422.0 121.0Q443 149 453.5 186.5Q464 224 464 268Q464 311 453.5 349.0Q443 387 422.0 415.5Q401 444 369.5 460.0Q338 476 297 476Q256 476 224.5 460.0Q193 444 172.0 415.5Q151 387 140.5 349.0Q130 311 130 268Q130 224 140.5 186.5Q151 149 172.0 121.0Q193 93 224.5 77.0Q256 61 297 61Z" transform="translate(170.000 130.000) scale(0.0310000 -0.0310000)" /><path d="M31 537H114V611Q114 685 152 718Q172 735 201.5 742.0Q231 749 270 749Q281 749 293.0 748.5Q305 748 318 747V670Q285 672 263.5 670.5Q242 669 229.5 661.5Q217 654 212.0 641.0Q207 628 207 607V537H317V464H207V0H114V464H31Z" transform="translate(188.414 130.000) scale(0.0310000 -0.0310000)" /><path d="M399 -15Q319 -15 254.5 14.0Q190 43 144.5 94.5Q99 146 74.0 217.0Q49 288 49 372Q49 454 73.0 525.0Q97 596 142.5 648.0Q188 700 253.5 730.0Q319 760 402 760Q468 760 519.5 742.5Q571 725 609 694Q649 662 672.5 617.5Q696 573 704 519H602Q589 588 537.5 629.5Q486 671 400 671Q341 671 295.0 648.5Q249 626 217.5 586.0Q186 546 169.5 491.0Q153 436 153 372Q153 305 170.5 250.0Q188 195 220.5 156.0Q253 117 299.0 95.5Q345 74 401 74Q452 74 489.5 90.0Q527 106 552.5 133.0Q578 160 592.5 195.5Q607 231 610 271H712Q712 243 705.5 214.5Q699 186 687.0 159.0Q675 132 659.0 107.5Q643 83 623 64Q544 -15 399 -15Z" transform="translate(207.510 130.000) scale(0.0310000 -0.0310000)" /><path d="M297 -15Q235 -15 186.5 7.0Q138 29 104.0 67.5Q70 106 52.5 157.5Q35 209 35 268Q35 326 53.5 377.5Q72 429 105.5 467.5Q139 506 186.5 528.0Q234 550 292 550Q352 550 398.0 528.0Q444 506 476 467Q509 427 525.5 371.0Q542 315 542 246H130Q133 207 145.0 173.0Q157 139 178.0 114.0Q199 89 229.0 75.0Q259 61 298 61Q354 61 390.5 85.5Q427 110 440 153H531Q513 78 451.5 31.5Q390 -15 297 -15ZM292 478Q256 478 228.0 465.5Q200 453 180.0 431.0Q160 409 148.0 379.0Q136 349 132 313H443Q439 391 400.5 434.5Q362 478 292 478Z" transform="translate(230.946 130.000) scale(0.0310000 -0.0310000)" /><path d="M156 461H159Q188 502 229.0 526.0Q270 550 329 550Q414 550 462.0 505.0Q510 460 510 375V0H418V364Q418 416 386.5 444.0Q355 472 300 472Q269 472 242.5 461.5Q216 451 197.0 432.0Q178 413 167.5 386.0Q157 359 157 327V0H64V537H156Z" transform="translate(248.833 130.000) scale(0.0310000 -0.0310000)" /><path d="M31 537H115V706H207V537H318V465H207V126Q207 97 221.5 86.5Q236 76 262 76Q274 76 287.5 78.5Q301 81 309 83H312V5Q274 -4 237 -4Q183 -3 149.0 21.5Q115 46 115 105V465H31Z" transform="translate(266.534 130.000) scale(0.0310000 -0.0310000)" /><path d="M156 440H159Q184 487 224.0 515.5Q264 544 318 544Q329 544 336.5 542.5Q344 541 352 538V450H349Q339 453 331.0 454.0Q323 455 311 455Q280 455 252.0 443.5Q224 432 203.0 411.0Q182 390 169.5 360.0Q157 330 157 292V0H64V537H156Z" transform="translate(277.415 130.000) scale(0.0310000 -0.0310000)" /><path d="M224 -11Q186 -11 152.5 -1.5Q119 8 94.5 27.0Q70 46 56.0 74.5Q42 103 42 142Q42 189 58.5 219.0Q75 249 105.5 267.0Q136 285 178.5 295.0Q221 305 273 311Q303 314 327.0 319.0Q351 324 368.0 332.5Q385 341 394.0 354.0Q403 367 403 388Q403 432 373.5 457.0Q344 482 288 482Q224 482 192.5 454.0Q161 426 159 378H69Q70 412 84.0 443.0Q98 474 125.0 498.0Q152 522 192.5 536.0Q233 550 287 550Q325 550 358.0 543.0Q391 536 417 521Q451 501 470.0 465.0Q489 429 489 375V124Q489 92 500.0 76.0Q511 60 546 68H550V3Q540 0 528.5 -2.5Q517 -5 500 -5Q457 -5 435.0 15.5Q413 36 405 79H404Q391 61 374.0 45.0Q357 29 335.0 16.5Q313 4 285.5 -3.5Q258 -11 224 -11ZM247 57Q287 57 316.5 70.5Q346 84 365.5 104.5Q385 125 394.5 150.0Q404 175 404 198V286Q384 273 351.5 263.5Q319 254 286 248Q253 242 226.0 235.5Q199 229 180.0 217.5Q161 206 150.5 188.5Q140 171 140 143Q140 117 149.0 100.5Q158 84 173.0 74.0Q188 64 207.5 60.5Q227 57 247 57Z" transform="translate(289.164 130.000) scale(0.0310000 -0.0310000)" /><path d="M67 744H160V0H67Z" transform="translate(306.586 130.000) scale(0.0310000 -0.0310000)" /><path d="M77 744H179V93H564V0H77Z" transform="translate(321.869 130.000) scale(0.0310000 -0.0310000)" /><path d="M224 -11Q186 -11 152.5 -1.5Q119 8 94.5 27.0Q70 46 56.0 74.5Q42 103 42 142Q42 189 58.5 219.0Q75 249 105.5 267.0Q136 285 178.5 295.0Q221 305 273 311Q303 314 327.0 319.0Q351 324 368.0 332.5Q385 341 394.0 354.0Q403 367 403 388Q403 432 373.5 457.0Q344 482 288 482Q224 482 192.5 454.0Q161 426 159 378H69Q70 412 84.0 443.0Q98 474 125.0 498.0Q152 522 192.5 536.0Q233 550 287 550Q325 550 358.0 543.0Q391 536 417 521Q451 501 470.0 465.0Q489 429 489 375V124Q489 92 500.0 76.0Q511 60 546 68H550V3Q540 0 528.5 -2.5Q517 -5 500 -5Q457 -5 435.0 15.5Q413 36 405 79H404Q391 61 374.0 45.0Q357 29 335.0 16.5Q313 4 285.5 -3.5Q258 -11 224 -11ZM247 57Q287 57 316.5 70.5Q346 84 365.5 104.5Q385 125 394.5 150.0Q404 175 404 198V286Q384 273 351.5 263.5Q319 254 286 248Q253 242 226.0 235.5Q199 229 180.0 217.5Q161 206 150.5 188.5Q140 171 140 143Q140 117 149.0 100.5Q158 84 173.0 74.0Q188 64 207.5 60.5Q227 57 247 57Z" transform="translate(340.314 130.000) scale(0.0310000 -0.0310000)" /><path d="M156 461H159Q188 502 229.0 526.0Q270 550 329 550Q414 550 462.0 505.0Q510 460 510 375V0H418V364Q418 416 386.5 444.0Q355 472 300 472Q269 472 242.5 461.5Q216 451 197.0 432.0Q178 413 167.5 386.0Q157 359 157 327V0H64V537H156Z" transform="translate(357.736 130.000) scale(0.0310000 -0.0310000)" /><path d="M297 -15Q235 -15 186.5 7.0Q138 29 104.0 67.5Q70 106 52.5 157.5Q35 209 35 268Q35 326 53.5 377.5Q72 429 105.5 467.5Q139 506 186.5 528.0Q234 550 292 550Q352 550 398.0 528.0Q444 506 476 467Q509 427 525.5 371.0Q542 315 542 246H130Q133 207 145.0 173.0Q157 139 178.0 114.0Q199 89 229.0 75.0Q259 61 298 61Q354 61 390.5 85.5Q427 110 440 153H531Q513 78 451.5 31.5Q390 -15 297 -15ZM292 478Q256 478 228.0 465.5Q200 453 180.0 431.0Q160 409 148.0 379.0Q136 349 132 313H443Q439 391 400.5 434.5Q362 478 292 478Z" transform="translate(375.437 130.000) scale(0.0310000 -0.0310000)" /></g></svg>