<?xml version='1.0' encoding='UTF-8'?>
<svg xmlns="http://www.w3.org/2000/svg" width="600" height="262" viewBox="0 0 600 262" version="1.1"><!--Base Habitat for Humanity logo from Wikimedia Commons File:Logo_Habitat_for_Humanity.svg; chapter text outlined from habitat.org Neue Haas Grotesk Text 55 Roman webfont.--><path d="m36.233 123.4a134.85 134.85 0 0 1 19.601 8.1057c11.643 5.9688 12.232 11.937 13.559 21.664 1.3264 9.7268 2.6528 29.475 2.8738 36.844a265.79 265.79 0 0 1-28.517-22.106c-3.537-3.0949-7.3688-5.2319-7.3688-10.022-0.0737-1.6211-0.88426-29.696-0.14738-34.486zm204.63-51.508c5.0108 8.032-5.5266 10.98-13.632 9.1373-6.7793-1.5475-73.172-36.844-83.194-37.949-10.022-1.1053-69.635 35.812-76.194 39.35a27.191 27.191 0 0 1-27.191 0c-2.9475-1.4738-25.717-13.19-30.654-16.875 4.9371-4.6424 74.057-46.055 82.089-50.108 9.211-4.6424 14.738-7.3688 24.907-3.316 7.0741 2.6528 121.44 56.445 123.87 59.761zm-107.81-0.73689a10.39 10.39 0 1 1 10.39 10.39 10.39 10.39 0 0 1-10.39-10.39zm105.37 38.392c-1.179-4.5687-7.3688-5.2319-12.895-3.8318a104.71 104.71 0 0 1-32.791 4.3476 46.497 46.497 0 0 1-24.907-14.148c5.8214-6.7056 13.338-13.853 14.738-15.917a7.3688 7.3688 0 0 0 0.81057-9.5058c-2.0633-2.0633-5.7477-0.81057-9.5058 1.6948s-17.759 16.654-31.17 16.654c-13.411 0-28.002-14.222-31.686-16.654a9.8005 9.8005 0 0 0-11.201 0c-2.0633 2.0633 0 4.9371 2.5054 7.811s9.5058 9.5058 15.401 16.359a45.76 45.76 0 0 1-24.464 13.706 104.71 104.71 0 0 1-32.202-3.9792c-5.4529-1.4001-11.716-0.73688-12.895 3.8318-0.81057 2.8002 1.6211 5.8951 4.7897 7.9583s19.822 5.3792 24.464 12.453 5.3792 61.972 9.7268 64.182a16.875 16.875 0 0 0 11.716 0c4.2002-2.137 11.274-62.34 14.738-70.078a91.963 91.963 0 0 1 11.422-16.064c3.8318 17.98 8.032 84.963 12.085 86.363a22.106 22.106 0 0 0 11.569 0c3.9792-1.6948 8.3268-70.446 12.232-87.099a95.353 95.353 0 0 1 12.085 16.801c3.6107 7.3688 10.685 67.941 14.738 70.078a16.875 16.875 0 0 0 11.716 0c4.3476-1.8422 5.0845-57.035 9.7268-64.182s21.222-10.316 24.464-12.453 5.8951-5.5266 4.7897-8.3268zm-33.97-16.359a10.39 10.39 0 1 0-11.127 9.6532 10.39 10.39 0 0 0 11.127-9.6532zm-122.03 0a10.39 10.39 0 1 1 11.127 9.6532 10.39 10.39 0 0 1-11.127-9.6532z" fill="#111213" /><path d="m554.41 165.48c0.73688 4.4213 2.8738 12.453 3.9792 16.138a138.24 138.24 0 0 0 3.2423-16.138h8.4005a194.68 194.68 0 0 1-9.7268 30.875 12.748 12.748 0 0 1-12.38 8.4004 10.832 10.832 0 0 1-2.6528 0v-7.3688a7.3688 7.3688 0 0 0 3.1686 0.81057 4.8634 4.8634 0 0 0 4.8634-4.495 25.791 25.791 0 0 0-2.4317-7.7373 128.81 128.81 0 0 1-6.0424-20.338zm-16.58-8.6215v8.6215h4.2002v5.4529h-4.2002v14.222c0 2.358 0.81057 3.6107 3.0949 3.6107h1.179v5.0845a18.569 18.569 0 0 1-5.674 0.81057 7.3688 7.3688 0 0 1-6.1161-2.7265 10.537 10.537 0 0 1-1.6211-6.6319v-14.369h-3.316v-5.4529h3.316v-8.6215zm-20.78-3.6107a5.0845 5.0845 0 1 1-5.0845 5.0845 5.0845 5.0845 0 0 1 5.0845-5.0845zm4.716 12.232v13.338a112.6 112.6 0 0 0 0.51582 15.18h-10.316a83.047 83.047 0 0 0 0.51582-11.569v-5.3792a83.562 83.562 0 0 0-0.51582-11.569zm-29.623 0a14.738 14.738 0 0 1 0.81057 2.5791 9.8742 9.8742 0 0 1 7.3688-3.2423 7.9583 7.9583 0 0 1 7.9583 8.9163v8.6952a83.047 83.047 0 0 0 0.51582 11.569h-10.316a83.047 83.047 0 0 0 0.51581-11.569v-7.7373c0-1.7685-0.73688-3.1686-2.4317-3.1686a2.8002 2.8002 0 0 0-3.0212 2.6528v8.2531a83.047 83.047 0 0 0 0.51581 11.569h-10.169a83.047 83.047 0 0 0 0.51582-11.569v-5.3792a83.562 83.562 0 0 0-0.51582-11.569zm-33.528-0.44213c0.81057 0 3.8318-0.44213 5.9687-0.44213 11.643 0 15.253 4.5687 15.253 12.159v7.3688a26.97 26.97 0 0 0 1.4738 9.9479h-8.99a4.5687 4.5687 0 0 1-0.95795-1.7685 10.685 10.685 0 0 1-6.3372 2.2106 8.4741 8.4741 0 0 1-9.0636-8.5478c0-5.1582 4.1265-8.6952 9.5058-10.464l4.716-1.4738a3.6844 3.6844 0 0 0-4.0528-3.6844 13.632 13.632 0 0 0-7.3688 2.9475zm12.232 14.001c-3.537 0.95795-5.7477 3.1686-5.7477 5.9688a3.2423 3.2423 0 0 0 3.0949 3.537 3.4633 3.4633 0 0 0 2.6528-1.2527zm-48.192-13.559a10.758 10.758 0 0 1 0.88426 2.5791 11.127 11.127 0 0 1 7.3688-3.2423 7.3688 7.3688 0 0 1 6.3372 3.6107 11.569 11.569 0 0 1 7.5162-3.3897c5.5266 0 7.3688 3.9055 7.3688 9.5058v8.1057a83.047 83.047 0 0 0 0.51582 11.569h-9.6532a96.826 96.826 0 0 0 0.44213-11.569v-8.032c0-1.9896-0.51581-3.4634-2.2843-3.4634a3.0949 3.0949 0 0 0-3.0212 3.4634v7.811a83.047 83.047 0 0 0 0.51582 11.569h-10.169a83.047 83.047 0 0 0 0.51582-11.569v-7.9583c0-1.8422-0.5895-3.316-2.2843-3.316a3.0212 3.0212 0 0 0-3.0212 3.0212v8.2531a83.047 83.047 0 0 0 0.51582 11.569h-10.169a83.047 83.047 0 0 0 0.51582-11.569v-5.3792a83.562 83.562 0 0 0-0.51582-11.569zm-21.738 28.517a14.738 14.738 0 0 1-0.81057-2.5791 9.8742 9.8742 0 0 1-6.9267 3.0949 7.9583 7.9583 0 0 1-7.9583-8.9163v-8.5478a83.562 83.562 0 0 0-0.51582-11.569h9.6532v18.938c0 2.2843 0.88426 3.6107 2.5791 3.6107a2.8738 2.8738 0 0 0 2.8738-3.0212v-7.9583a83.562 83.562 0 0 0-0.51582-11.569h10.169a83.562 83.562 0 0 0-0.51581 11.569v5.3792a83.047 83.047 0 0 0 0.51581 11.569zm-39.35-40.381v15.99h8.6215v-6.5582-9.4321h10.685a191 191 0 0 0-0.5895 20.191 191 191 0 0 0 0.5895 20.191h-11.274v-9.4321-8.2531h-8.6215v17.685h-10.095a191 191 0 0 0 0.5895-20.191 191 191 0 0 0-0.5895-20.191zm-39.276 11.864a24.98 24.98 0 0 1 0.73688 3.8318 9.3584 9.3584 0 0 1 7.3688-4.495h1.2527v7.3688h-1.6948c-4.3476 0-6.1898 3.9792-6.1898 10.169a83.047 83.047 0 0 0 0.51582 11.569h-10.685a83.047 83.047 0 0 0 0.51582-11.569v-5.3792a45.466 45.466 0 0 0-0.95794-11.569zm-11.938 14.296a13.338 13.338 0 1 1-26.454 0 13.338 13.338 0 1 1 26.454 0zm-16.432 0c0 6.7793 1.4738 9.211 3.1686 9.211s3.1686-2.4317 3.1686-9.211c0-6.7793-1.4738-9.2847-3.1686-9.2847s-3.1686 2.4317-3.1686 9.2847zm-9.6532-20.264a3.9792 3.9792 0 0 0-2.2106-0.5895 3.4633 3.4633 0 0 0-3.537 3.7581 7.9583 7.9583 0 0 0 0.58951 2.8002h4.2739v5.4529h-4.3476v11.495a83.047 83.047 0 0 0 0.51582 11.569h-10.169a83.047 83.047 0 0 0 0.51582-11.569v-11.495h-3.0949v-5.4529h3.0949v-2.2106a8.6952 8.6952 0 0 1 3.2423-7.7373 11.79 11.79 0 0 1 7.3688-2.4317 11.201 11.201 0 0 1 3.537 0.51582zm278.39-86.657v15.99h7.3688v9.8742h-7.9583v26.307c0 4.2739 1.5475 6.7056 5.7477 6.7056a12.748 12.748 0 0 0 2.2106 0v9.4321a34.412 34.412 0 0 1-10.537 1.5474 14.001 14.001 0 0 1-11.569-5.0845 19.38 19.38 0 0 1-3.0212-12.306v-26.601h-6.0424v-9.8742h6.0424v-15.99zm-67.646 15.548a99.995 99.995 0 0 1 10.98-0.81057c21.591 0 28.149 8.4005 28.149 22.106v13.338a49.592 49.592 0 0 0 2.7265 18.348h-16.58a9.3584 9.3584 0 0 1-1.7685-3.2423 19.085 19.085 0 0 1-11.716 4.0528 15.622 15.622 0 0 1-16.654-15.696c0-9.6532 7.3688-16.064 17.538-19.306l8.6215-2.8002a6.7056 6.7056 0 0 0-7.3688-6.7793 25.644 25.644 0 0 0-13.927 5.3792zm22.622 25.865c-6.5582 1.6948-10.611 5.7477-10.611 10.98a5.8951 5.8951 0 0 0 5.6003 6.4109 6.7056 6.7056 0 0 0 5.0108-2.2843zm-40.381-41.413v15.99h7.811v9.8742h-8.1057v26.307c0 4.2739 1.5474 6.7056 5.7477 6.7056a13.19 13.19 0 0 0 2.2106 0v9.4321a34.412 34.412 0 0 1-10.685 1.7685 14.001 14.001 0 0 1-11.274-5.0108 19.38 19.38 0 0 1-3.0212-12.306v-26.896h-6.0424v-9.8742h6.0424v-15.99zm-37.434-6.7056a9.4321 9.4321 0 1 1-9.3584 9.4321 9.3584 9.3584 0 0 1 9.3584-9.4321zm8.6215 22.696v24.612a222.91 222.91 0 0 0 0.88426 27.928h-18.864a164.62 164.62 0 0 0 0.88426-21.296v-10.022a163.44 163.44 0 0 0-0.88426-21.222zm-52.834-21.959v23.58a21.075 21.075 0 0 1 10.169-2.8738c9.8742 0 19.159 7.3688 19.159 26.233 0 14.738-8.032 28.812-22.843 28.812a21.149 21.149 0 0 1-13.411-5.2319l-5.895 5.0108-5.0108-3.0212a152.02 152.02 0 0 0 0.66319-21.296v-29.917c0-3.8318 0-8.1057-1.0316-21.296zm0 59.909c0 3.0212 1.179 5.4529 4.495 5.4529s7.3688-4.4213 7.3688-16.801c0-8.9163-2.2843-16.506-7.3688-16.506a3.9792 3.9792 0 0 0-4.2739 4.2739zm-64.993-38.392a98.374 98.374 0 0 1 10.98-0.81057c21.591 0 28.223 8.4005 28.223 22.106v13.338a50.919 50.919 0 0 0 2.6528 18.348h-16.654a10.98 10.98 0 0 1-1.7685-3.2423 18.864 18.864 0 0 1-11.643 4.0528 15.622 15.622 0 0 1-16.727-15.696c0-9.6532 7.3688-16.064 17.538-19.306l8.6952-2.8002a6.7793 6.7793 0 0 0-7.3688-6.7793 25.717 25.717 0 0 0-13.853 5.3792zm22.622 25.865c-6.5582 1.6948-10.611 5.7477-10.611 10.98a5.8951 5.8951 0 0 0 5.6003 6.4109 6.853 6.853 0 0 0 5.0108-2.2843zm-66.246-47.382c-0.44213 5.1582-0.51582 11.053-0.51582 17.464v12.011h15.843v-12.011c0-6.4109 0-12.306-0.51582-17.464h19.748a346.78 346.78 0 0 0-1.1053 37.286 346.33 346.33 0 0 0 1.1053 36.844h-19.748c0.44213-5.0845 0.51582-11.053 0.51582-17.39v-14.885h-7.8846-7.9583v15.253c0 6.3372 0 12.306 0.51582 17.39h-19.748a346.33 346.33 0 0 0 1.1053-36.844 346.78 346.78 0 0 0-1.1053-37.286zm294.46 85.552a8.6952 8.6952 0 1 1-8.8426 8.6952 8.6952 8.6952 0 0 1 8.8426-8.6952zm0 16.064a7.3688 7.3688 0 1 0-7.3688-7.3688 7.3688 7.3688 0 0 0 7.3688 7.3688zm-1.9159-2.358h-1.4738v-10.169h3.9055q3.537 0 3.537 2.8738a2.6528 2.6528 0 0 1-2.6528 2.8002l2.9475 4.495h-1.6211l-2.7265-4.4213h-1.9159zm0-5.674h2.4317c1.5475 0 2.0633-0.51582 2.0633-1.6948s-0.73688-1.5474-1.7685-1.5474h-2.7265z" fill="#111213" /><g fill="#111213" aria-label="of Central Lane"><path d="M298 -15Q237 -15 188.5 7.0Q140 29 106.0 67.5Q72 106 53.5 157.5Q35 209 35 268Q35 326 53.5 377.5Q72 429 106.0 467.5Q140 506 188.5 528.0Q237 550 298 550Q359 550 407.0 528.0Q455 506 489.0 467.5Q523 429 541.0 377.5Q559 326 559 268Q559 209 541.0 157.5Q523 106 489.0 67.5Q455 29 407.0 7.0Q359 -15 298 -15ZM297 61Q338 61 369.5 77.0Q401 93 422.0 121.0Q443 149 453.5 186.5Q464 224 464 268Q464 311 453.5 349.0Q443 387 422.0 415.5Q401 444 369.5 460.0Q338 476 297 476Q256 476 224.5 460.0Q193 444 172.0 415.5Q151 387 140.5 349.0Q130 311 130 268Q130 224 140.5 186.5Q151 149 172.0 121.0Q193 93 224.5 77.0Q256 61 297 61Z" transform="translate(268.000 245.000) scale(0.0365000 -0.0365000)" /><path d="M31 537H114V611Q114 685 152 718Q172 735 201.5 742.0Q231 749 270 749Q281 749 293.0 748.5Q305 748 318 747V670Q285 672 263.5 670.5Q242 669 229.5 661.5Q217 654 212.0 641.0Q207 628 207 607V537H317V464H207V0H114V464H31Z" transform="translate(289.681 245.000) scale(0.0365000 -0.0365000)" /><path d="M399 -15Q319 -15 254.5 14.0Q190 43 144.5 94.5Q99 146 74.0 217.0Q49 288 49 372Q49 454 73.0 525.0Q97 596 142.5 648.0Q188 700 253.5 730.0Q319 760 402 760Q468 760 519.5 742.5Q571 725 609 694Q649 662 672.5 617.5Q696 573 704 519H602Q589 588 537.5 629.5Q486 671 400 671Q341 671 295.0 648.5Q249 626 217.5 586.0Q186 546 169.5 491.0Q153 436 153 372Q153 305 170.5 250.0Q188 195 220.5 156.0Q253 117 299.0 95.5Q345 74 401 74Q452 74 489.5 90.0Q527 106 552.5 133.0Q578 160 592.5 195.5Q607 231 610 271H712Q712 243 705.5 214.5Q699 186 687.0 159.0Q675 132 659.0 107.5Q643 83 623 64Q544 -15 399 -15Z" transform="translate(312.165 245.000) scale(0.0365000 -0.0365000)" /><path d="M297 -15Q235 -15 186.5 7.0Q138 29 104.0 67.5Q70 106 52.5 157.5Q35 209 35 268Q35 326 53.5 377.5Q72 429 105.5 467.5Q139 506 186.5 528.0Q234 550 292 550Q352 550 398.0 528.0Q444 506 476 467Q509 427 525.5 371.0Q542 315 542 246H130Q133 207 145.0 173.0Q157 139 178.0 114.0Q199 89 229.0 75.0Q259 61 298 61Q354 61 390.5 85.5Q427 110 440 153H531Q513 78 451.5 31.5Q390 -15 297 -15ZM292 478Q256 478 228.0 465.5Q200 453 180.0 431.0Q160 409 148.0 379.0Q136 349 132 313H443Q439 391 400.5 434.5Q362 478 292 478Z" transform="translate(339.759 245.000) scale(0.0365000 -0.0365000)" /><path d="M156 461H159Q188 502 229.0 526.0Q270 550 329 550Q414 550 462.0 505.0Q510 460 510 375V0H418V364Q418 416 386.5 444.0Q355 472 300 472Q269 472 242.5 461.5Q216 451 197.0 432.0Q178 413 167.5 386.0Q157 359 157 327V0H64V537H156Z" transform="translate(360.820 245.000) scale(0.0365000 -0.0365000)" /><path d="M31 537H115V706H207V537H318V465H207V126Q207 97 221.5 86.5Q236 76 262 76Q274 76 287.5 78.5Q301 81 309 83H312V5Q274 -4 237 -4Q183 -3 149.0 21.5Q115 46 115 105V465H31Z" transform="translate(381.661 245.000) scale(0.0365000 -0.0365000)" /><path d="M156 440H159Q184 487 224.0 515.5Q264 544 318 544Q329 544 336.5 542.5Q344 541 352 538V450H349Q339 453 331.0 454.0Q323 455 311 455Q280 455 252.0 443.5Q224 432 203.0 411.0Q182 390 169.5 360.0Q157 330 157 292V0H64V537H156Z" transform="translate(394.472 245.000) scale(0.0365000 -0.0365000)" /><path d="M224 -11Q186 -11 152.5 -1.5Q119 8 94.5 27.0Q70 46 56.0 74.5Q42 103 42 142Q42 189 58.5 219.0Q75 249 105.5 267.0Q136 285 178.5 295.0Q221 305 273 311Q303 314 327.0 319.0Q351 324 368.0 332.5Q385 341 394.0 354.0Q403 367 403 388Q403 432 373.5 457.0Q344 482 288 482Q224 482 192.5 454.0Q161 426 159 378H69Q70 412 84.0 443.0Q98 474 125.0 498.0Q152 522 192.5 536.0Q233 550 287 550Q325 550 358.0 543.0Q391 536 417 521Q451 501 470.0 465.0Q489 429 489 375V124Q489 92 500.0 76.0Q511 60 546 68H550V3Q540 0 528.5 -2.5Q517 -5 500 -5Q457 -5 435.0 15.5Q413 36 405 79H404Q391 61 374.0 45.0Q357 29 335.0 16.5Q313 4 285.5 -3.5Q258 -11 224 -11ZM247 57Q287 57 316.5 70.5Q346 84 365.5 104.5Q385 125 394.5 150.0Q404 175 404 198V286Q384 273 351.5 263.5Q319 254 286 248Q253 242 226.0 235.5Q199 229 180.0 217.5Q161 206 150.5 188.5Q140 171 140 143Q140 117 149.0 100.5Q158 84 173.0 74.0Q188 64 207.5 60.5Q227 57 247 57Z" transform="translate(408.306 245.000) scale(0.0365000 -0.0365000)" /><path d="M67 744H160V0H67Z" transform="translate(428.819 245.000) scale(0.0365000 -0.0365000)" /><path d="M77 744H179V93H564V0H77Z" transform="translate(446.813 245.000) scale(0.0365000 -0.0365000)" /><path d="M224 -11Q186 -11 152.5 -1.5Q119 8 94.5 27.0Q70 46 56.0 74.5Q42 103 42 142Q42 189 58.5 219.0Q75 249 105.5 267.0Q136 285 178.5 295.0Q221 305 273 311Q303 314 327.0 319.0Q351 324 368.0 332.5Q385 341 394.0 354.0Q403 367 403 388Q403 432 373.5 457.0Q344 482 288 482Q224 482 192.5 454.0Q161 426 159 378H69Q70 412 84.0 443.0Q98 474 125.0 498.0Q152 522 192.5 536.0Q233 550 287 550Q325 550 358.0 543.0Q391 536 417 521Q451 501 470.0 465.0Q489 429 489 375V124Q489 92 500.0 76.0Q511 60 546 68H550V3Q540 0 528.5 -2.5Q517 -5 500 -5Q457 -5 435.0 15.5Q413 36 405 79H404Q391 61 374.0 45.0Q357 29 335.0 16.5Q313 4 285.5 -3.5Q258 -11 224 -11ZM247 57Q287 57 316.5 70.5Q346 84 365.5 104.5Q385 125 394.5 150.0Q404 175 404 198V286Q384 273 351.5 263.5Q319 254 286 248Q253 242 226.0 235.5Q199 229 180.0 217.5Q161 206 150.5 188.5Q140 171 140 143Q140 117 149.0 100.5Q158 84 173.0 74.0Q188 64 207.5 60.5Q227 57 247 57Z" transform="translate(468.531 245.000) scale(0.0365000 -0.0365000)" /><path d="M156 461H159Q188 502 229.0 526.0Q270 550 329 550Q414 550 462.0 505.0Q510 460 510 375V0H418V364Q418 416 386.5 444.0Q355 472 300 472Q269 472 242.5 461.5Q216 451 197.0 432.0Q178 413 167.5 386.0Q157 359 157 327V0H64V537H156Z" transform="translate(489.044 245.000) scale(0.0365000 -0.0365000)" /><path d="M297 -15Q235 -15 186.5 7.0Q138 29 104.0 67.5Q70 106 52.5 157.5Q35 209 35 268Q35 326 53.5 377.5Q72 429 105.5 467.5Q139 506 186.5 528.0Q234 550 292 550Q352 550 398.0 528.0Q444 506 476 467Q509 427 525.5 371.0Q542 315 542 246H130Q133 207 145.0 173.0Q157 139 178.0 114.0Q199 89 229.0 75.0Q259 61 298 61Q354 61 390.5 85.5Q427 110 440 153H531Q513 78 451.5 31.5Q390 -15 297 -15ZM292 478Q256 478 228.0 465.5Q200 453 180.0 431.0Q160 409 148.0 379.0Q136 349 132 313H443Q439 391 400.5 434.5Q362 478 292 478Z" transform="translate(509.885 245.000) scale(0.0365000 -0.0365000)" /></g></svg>